<svg width="25" height="25" viewBox="0 0 25 25" fill="none" xmlns="http://www.w3.org/2000/svg">
<path d="M24.7554 5.76523C24.5116 5.596 23.9707 5.18291 23.0366 4.29106C22.8594 4.04765 22.6427 3.83565 22.3954 3.66387C21.9618 3.3627 21.4355 3.18994 20.8677 3.18994C19.5081 3.18994 18.3856 4.19941 18.2105 5.51777H18.164V7.53867C18.164 7.53721 18.1714 7.5353 18.164 7.53384V8.49692C18.164 9.40728 17.4384 10.1454 16.5287 10.1482C15.6191 10.1454 14.8926 9.40723 14.8926 8.49688V7.94302C14.8818 7.94819 14.8712 7.95391 14.8604 7.95918C14.7338 5.921 14.0037 3.66387 10.8994 3.66387C7.39324 3.66387 6.21541 4.78667 4.33709 4.78667C1.924 4.78667 0.725904 3.69912 0.379224 3.31675C0.322095 3.25371 0.219165 3.26938 0.184644 3.34717C0.112818 3.50894 0.0289309 4.98022 0.527564 6.73286C1.00549 8.4999 1.47117 9.05386 0.130005 8.54907C-0.485473 8.31738 1.08626 11.5559 4.80623 12.5686L4.80549 12.5688C3.9322 12.9302 1.74543 11.9457 2.81819 13.091C4.3801 14.7586 9.12566 14.435 11.7069 13.397C11.2496 14.7864 10.0813 16.486 8.64001 17.9273C7.58621 18.9811 6.08489 19.6207 4.97781 19.9778C4.54026 20.1189 4.52937 20.7339 4.96126 20.8916L5.19202 20.9758C5.28246 21.0088 5.36098 21.0681 5.41751 21.146C5.47405 21.2239 5.50603 21.317 5.50935 21.4132L5.52917 21.9876C5.53938 22.2839 5.81155 22.5013 6.10281 22.4457L6.72219 22.3275C6.83113 22.3068 6.9439 22.3241 7.04159 22.3766C7.13928 22.4291 7.21594 22.5136 7.25872 22.6159L7.62014 23.4807C7.66032 23.5768 7.73047 23.6573 7.82015 23.7104C7.90982 23.7634 8.01422 23.786 8.1178 23.7749L9.25452 23.6526C9.36332 23.6409 9.47288 23.6665 9.56527 23.7252C9.65765 23.7838 9.7274 23.8721 9.76311 23.9755L9.81628 24.1296C9.95691 24.537 10.5201 24.571 10.7081 24.1832C11.0058 23.5692 11.3097 22.6448 11.3097 21.4293C11.3097 18.9674 14.275 17.9237 17.1472 17.9237V17.9201H17.1496C19.994 17.9201 22.298 15.6607 22.383 12.837C22.391 12.7869 22.3955 12.7352 22.3955 12.6772C22.3955 11.1133 21.6695 9.20689 22.7529 7.77334C22.849 7.67862 22.9378 7.57678 23.0186 7.4687C23.0187 7.46865 23.0188 7.4688 23.0188 7.4687C23.6659 6.82163 24.4376 6.22305 24.7599 5.98076C24.8324 5.92622 24.8301 5.81699 24.7554 5.76523Z" fill="#B28744"/>
<path d="M21.1473 6.6021C20.8689 6.6021 20.6432 6.37637 20.6432 6.09795V5.30493C20.6432 5.02651 20.8689 4.80078 21.1473 4.80078C21.4258 4.80078 21.6515 5.02651 21.6515 5.30493V6.09795C21.6515 6.37637 21.4258 6.6021 21.1473 6.6021Z" fill="#B28744"/>
</svg>
