<svg width="30" height="30" viewBox="0 0 30 30" fill="none" xmlns="http://www.w3.org/2000/svg">
<path d="M20.385 15.6001V18.7501C20.385 18.9284 20.325 19.0772 20.205 19.1963C20.085 19.3155 19.9367 19.3751 19.76 19.3751C19.5833 19.3751 19.4346 19.3155 19.3138 19.1963C19.1929 19.0772 19.1333 18.9284 19.135 18.7501V15.9451L17.775 13.4376C17.3408 13.4776 16.9779 13.6609 16.6863 13.9876C16.3946 14.3151 16.2488 14.7009 16.2488 15.1451V21.7001L18.415 25.3126C18.5525 25.5209 18.5567 25.7292 18.4275 25.9376C18.2983 26.1459 18.1142 26.2501 17.875 26.2501C17.7583 26.2501 17.6542 26.2222 17.5625 26.1663C17.4708 26.1105 17.3971 26.0368 17.3413 25.9451L15 22.0576V15.1451C15 14.4826 15.1963 13.8888 15.5888 13.3638C15.9813 12.8372 16.4967 12.4851 17.135 12.3076L15.0725 8.46883C14.7192 7.78883 14.5567 7.07842 14.585 6.33758C14.6133 5.59675 14.8917 4.96175 15.42 4.43258L16.2713 3.56508C16.4779 3.35842 16.7346 3.25633 17.0413 3.25883C17.3471 3.2605 17.5904 3.38342 17.7713 3.62758L24.5825 11.7838C24.7167 11.9438 24.8238 12.1197 24.9038 12.3113C24.9838 12.503 25.0342 12.7022 25.055 12.9088L26.1975 25.5801C26.2225 25.7576 26.1704 25.9138 26.0413 26.0488C25.9121 26.1838 25.7579 26.2509 25.5788 26.2501C25.4221 26.2501 25.285 26.193 25.1675 26.0788C25.0508 25.9638 24.98 25.828 24.955 25.6713L23.7813 12.7363L16.9813 4.62508L16.3125 5.31758C16.0083 5.62175 15.8283 5.97758 15.7725 6.38508C15.7167 6.79258 15.7917 7.18508 15.9975 7.56258L20.385 15.6001ZM9.61501 15.6001L14.0025 7.56258C14.2075 7.18425 14.2825 6.79175 14.2275 6.38508C14.1725 5.97842 13.9925 5.62258 13.6875 5.31758L13.02 4.62508L6.21876 12.7363L5.04626 25.6776C5.02042 25.8351 4.94917 25.9701 4.83251 26.0826C4.71501 26.1943 4.57751 26.2501 4.42001 26.2501C4.24251 26.2501 4.08876 26.183 3.95876 26.0488C3.82876 25.9147 3.77667 25.7584 3.80251 25.5801L4.92126 12.9088C4.94209 12.7022 4.99209 12.503 5.07126 12.3113C5.15209 12.1197 5.26001 11.9438 5.39501 11.7838L12.2288 3.62758C12.4096 3.38342 12.6504 3.2605 12.9513 3.25883C13.2513 3.25633 13.5046 3.35842 13.7113 3.56508L14.58 4.43258C15.1083 4.96175 15.3867 5.59675 15.415 6.33758C15.4433 7.07925 15.2808 7.78967 14.9275 8.46883L12.8413 12.3076C13.4796 12.4851 13.9988 12.8368 14.3988 13.3626C14.7996 13.8884 15 14.4822 15 15.1438V22.0576L12.6588 25.9451C12.6029 26.0368 12.5279 26.1105 12.4338 26.1663C12.3396 26.2222 12.2342 26.2501 12.1175 26.2501C11.8792 26.2501 11.6958 26.1459 11.5675 25.9376C11.4408 25.7292 11.4463 25.5209 11.5838 25.3126L13.75 21.7001V15.1451C13.75 14.7009 13.6042 14.3155 13.3125 13.9888C13.0208 13.6613 12.6579 13.4776 12.2238 13.4376L10.865 15.9451V18.7501C10.865 18.9284 10.8054 19.0772 10.6863 19.1963C10.5671 19.3155 10.4183 19.3751 10.24 19.3751C10.0617 19.3751 9.91292 19.3155 9.79376 19.1963C9.67459 19.0772 9.61542 18.9284 9.61626 18.7501L9.61501 15.6001Z" fill="#B28744"/>
</svg>
