<svg width="60" height="60" viewBox="0 0 60 60" fill="none" xmlns="http://www.w3.org/2000/svg">
<path d="M20 10V35.46C19.1989 35.1655 18.3534 35.01 17.5 35C16.0166 35 14.5666 35.4399 13.3332 36.264C12.0999 37.0881 11.1386 38.2594 10.5709 39.6299C10.0032 41.0003 9.85472 42.5083 10.1441 43.9632C10.4335 45.418 11.1478 46.7544 12.1967 47.8033C13.2456 48.8522 14.582 49.5665 16.0368 49.8559C17.4917 50.1453 18.9997 49.9968 20.3701 49.4291C21.7406 48.8614 22.9119 47.9001 23.736 46.6668C24.5601 45.4334 25 43.9834 25 42.5V17.5H42.5V27.96C41.6989 27.6655 40.8534 27.51 40 27.5C38.5166 27.5 37.0666 27.9399 35.8332 28.764C34.5999 29.5881 33.6386 30.7594 33.0709 32.1299C32.5032 33.5003 32.3547 35.0083 32.6441 36.4632C32.9335 37.918 33.6478 39.2544 34.6967 40.3033C35.7456 41.3522 37.082 42.0665 38.5368 42.3559C39.9917 42.6453 41.4997 42.4968 42.8701 41.9291C44.2406 41.3614 45.4119 40.4001 46.236 39.1668C47.0601 37.9334 47.5 36.4834 47.5 35V10H20Z" fill="#B28744"/>
</svg>
