<svg width="58" height="59" viewBox="0 0 58 59" fill="none" xmlns="http://www.w3.org/2000/svg">
<g clip-path="url(#clip0_1_349)">
<path fill-rule="evenodd" clip-rule="evenodd" d="M8.80605 29.3355C10.8894 30.9189 12.3685 29.4397 10.7644 27.6897L10.5977 27.523C10.2542 27.1979 9.8925 26.8926 9.51438 26.6084C9.11855 26.3168 8.70188 26.0668 8.28521 25.8168C7.27784 25.2505 6.21804 24.7831 5.12063 24.4209C4.93553 24.3298 4.7218 24.3159 4.52645 24.3823C4.3311 24.4487 4.17013 24.59 4.07896 24.7751C3.9878 24.9602 3.97389 25.1739 4.04031 25.3693C4.10673 25.5646 4.24803 25.7256 4.43313 25.8168C5.32896 26.4209 6.07896 27.1918 6.93313 27.9001C7.48174 28.3862 8.05813 28.8376 8.6623 29.2543L8.80605 29.3355ZM28.9873 40.6876C28.9182 40.4942 28.7752 40.3362 28.5896 40.2483C28.404 40.1604 28.1911 40.1498 27.9977 40.2189C27.8043 40.2879 27.6463 40.431 27.5584 40.6166C27.4705 40.8022 27.4599 41.0151 27.529 41.2084C27.6443 41.8159 27.5138 42.4443 27.1662 42.9557C26.8185 43.467 26.2821 43.8194 25.6748 43.9355C25.3074 43.9455 24.943 43.8669 24.6123 43.7064C24.2564 43.5695 23.9309 43.3643 23.654 43.1022C23.4708 42.9092 23.297 42.7076 23.1331 42.498C23.0389 42.3503 22.9686 42.1885 22.9248 42.0189C22.8402 41.6225 22.8993 41.209 23.0915 40.8522C23.2373 40.7064 23.3415 40.5605 23.4665 40.4147C23.6405 40.1733 23.8598 39.9681 24.1123 39.8105C24.5704 39.5103 25.1062 39.3504 25.654 39.3504C26.2017 39.3504 26.7375 39.5103 27.1956 39.8105C27.3285 39.9202 27.4977 39.976 27.6698 39.9669C27.8418 39.9578 28.0042 39.8844 28.1247 39.7613C28.2452 39.6381 28.3151 39.4742 28.3205 39.302C28.3259 39.1298 28.2665 38.9618 28.154 38.8314C27.642 38.3067 27.0006 37.9264 26.2946 37.7289C25.5887 37.5314 24.8431 37.5236 24.1331 37.7064C24.1285 37.3824 24.0794 37.0607 23.9873 36.7501C23.9338 36.6054 23.8393 36.4794 23.7152 36.3877C23.5911 36.296 23.443 36.2426 23.2889 36.2339C23.1349 36.2253 22.9817 36.2619 22.8482 36.3391C22.7146 36.4164 22.6066 36.531 22.5373 36.6689C22.4926 36.7623 22.4671 36.8637 22.4625 36.9671C22.4578 37.0706 22.4741 37.1739 22.5102 37.2709C22.6248 37.623 22.6248 38.0023 22.5102 38.3543C21.8686 38.7222 21.3365 39.2543 20.9685 39.8959C20.8854 39.9043 20.8017 39.9043 20.7185 39.8959C20.3573 39.9112 19.9983 39.8323 19.6769 39.6668C19.2762 39.573 18.8999 39.3955 18.5727 39.1459C18.3874 38.9607 18.22 38.7584 18.0727 38.5418C17.9629 38.4003 17.8847 38.2369 17.8435 38.0626C17.7763 37.6235 17.8513 37.1743 18.0574 36.7808C18.2636 36.3873 18.5901 36.0699 18.9894 35.8751C19.4455 35.5697 19.9821 35.4066 20.531 35.4066C21.08 35.4066 21.6166 35.5697 22.0727 35.8751C22.2074 35.9897 22.3809 36.0485 22.5575 36.0395C22.7342 36.0305 22.9007 35.9544 23.0231 35.8267C23.1455 35.699 23.2145 35.5294 23.2159 35.3525C23.2174 35.1756 23.1513 35.0048 23.031 34.8751C22.6086 34.4271 22.087 34.0844 21.5081 33.8745C20.9292 33.6647 20.3091 33.5935 19.6977 33.6668C19.772 33.0852 19.6856 32.4944 19.4477 31.9584C19.3725 31.7734 19.2287 31.6246 19.0464 31.543C18.864 31.4614 18.6573 31.4534 18.4692 31.5206C18.2811 31.5878 18.1262 31.725 18.0368 31.9036C17.9474 32.0822 17.9304 32.2884 17.9894 32.4793C18.0612 32.7852 18.0629 33.1034 17.9944 33.4101C17.9258 33.7167 17.7888 34.0039 17.5935 34.2501C17.1892 34.4668 16.818 34.7404 16.4915 35.0626C16.3715 35.1232 16.2459 35.172 16.1165 35.2084C15.7568 35.2079 15.4015 35.1297 15.0748 34.9793C14.7189 34.8425 14.3934 34.6372 14.1165 34.3751C13.9264 34.1885 13.7521 33.9865 13.5956 33.7709C13.4879 33.6229 13.4166 33.4516 13.3873 33.2709C13.3015 32.8255 13.373 32.3641 13.5896 31.9655C13.8061 31.5669 14.1544 31.2559 14.5748 31.0855C15.0329 30.7853 15.5687 30.6254 16.1165 30.6254C16.6642 30.6254 17.2 30.7853 17.6581 31.0855C17.7927 31.1645 17.9502 31.1953 18.1046 31.1729C18.259 31.1506 18.4012 31.0763 18.5079 30.9624C18.6145 30.8485 18.6793 30.7017 18.6914 30.5461C18.7036 30.3905 18.6624 30.2355 18.5748 30.1064C17.9168 29.5197 17.1109 29.1242 16.2442 28.9626C15.3776 28.8011 14.4833 28.8796 13.6581 29.1897C12.7889 29.471 12.0496 30.055 11.5748 30.8355C10.9757 31.675 10.7092 32.7068 10.8269 33.7314C10.8998 34.1689 11.0477 34.5918 11.2644 34.9814C11.5616 35.4439 11.9088 35.8675 12.306 36.2522C12.9102 36.773 13.6331 37.1439 14.4102 37.3334C14.7283 37.4307 15.0547 37.4862 15.3894 37.5001C15.3475 37.8391 15.3475 38.182 15.3894 38.5209C15.4643 38.9556 15.6197 39.3725 15.8477 39.7501C16.1297 40.2307 16.4762 40.6612 16.8873 41.0418C17.8908 41.8931 19.1764 42.3382 20.4915 42.2897C20.5027 42.3447 20.5027 42.4014 20.4915 42.4564C20.5602 42.898 20.7165 43.323 20.9498 43.7064C21.231 44.1772 21.581 44.6064 21.9894 44.9772C22.5852 45.5001 23.2998 45.873 24.0727 46.0605C24.8348 46.2767 25.6419 46.2767 26.404 46.0605C26.9621 45.8882 27.48 45.6059 27.9273 45.2302C28.3746 44.8545 28.7421 44.393 29.0081 43.873C29.2376 43.3724 29.3547 42.8276 29.3511 42.277C29.3475 41.7263 29.2233 41.1831 28.9873 40.6855M26.4873 17.2376C26.7706 17.2932 27.0484 17.3696 27.3206 17.4668C28.7581 18.0501 29.5498 16.5293 28.5081 15.8626C27.9887 15.5541 27.4273 15.3225 26.8415 15.1751C25.5403 14.8952 24.1993 14.8529 22.8831 15.0501C21.7215 15.1278 20.5549 15.0719 19.406 14.8834L15.1373 13.2793C14.1498 12.8654 13.129 12.5529 12.0748 12.3418C11.986 12.3495 11.8998 12.3755 11.8215 12.4181C11.7432 12.4608 11.6746 12.5191 11.6201 12.5896C11.5655 12.66 11.526 12.741 11.5043 12.8274C11.4825 12.9139 11.4788 13.0039 11.4935 13.0918C11.5076 13.2473 11.5757 13.393 11.6861 13.5034C11.7965 13.6138 11.9422 13.6819 12.0977 13.6959C12.0977 13.6959 12.3477 13.8209 12.5769 13.9459C13.8685 14.6126 16.5956 16.3209 18.4498 17.2584C19.2102 17.6939 20.054 17.9626 20.929 18.0501L23.281 17.5709C24.3277 17.3036 25.408 17.1913 26.4873 17.2376ZM53.8102 12.073C53.7021 11.8939 53.5274 11.7648 53.3244 11.7141C53.1214 11.6633 52.9066 11.695 52.7269 11.8022L49.0185 13.8855C48.3556 14.268 47.6589 14.5888 46.9373 14.8439C46.5135 14.9797 46.0697 15.0431 45.6248 15.0314C44.9276 15.0194 44.2317 14.9638 43.5415 14.8647C42.9293 14.7576 42.3246 14.6115 41.731 14.4272C40.856 14.1355 40.0227 13.7605 39.1477 13.5105C38.473 13.3072 37.7711 13.2088 37.0665 13.2189C36.5012 13.2439 35.9526 13.355 35.4206 13.5522C34.6852 13.7959 33.9831 14.1397 33.3373 14.573C32.8165 14.8855 28.029 19.3189 27.5706 19.798C26.7659 20.5563 26.0654 21.418 25.4873 22.3605C25.0873 23.0689 24.8581 23.8605 24.8206 24.673C24.7742 25.1478 24.8364 25.6269 25.0024 26.0741C25.1684 26.5213 25.434 26.9248 25.779 27.2543C26.269 27.6417 26.8398 27.914 27.4492 28.0511C28.0587 28.1881 28.6911 28.1863 29.2998 28.0459C30.3748 27.8293 31.3831 27.3584 32.2352 26.6709C33.088 25.9932 33.8797 25.2501 34.6102 24.4418C35.6705 24.8877 36.795 25.162 37.9415 25.2543C38.4831 25.3168 39.0248 25.3168 39.5665 25.2543C40.1012 25.1765 40.622 25.0376 41.129 24.8376C42.2774 24.3535 43.3179 23.6452 44.1894 22.7543C44.2656 22.7042 44.3307 22.6391 44.3808 22.5629C44.4308 22.4867 44.4647 22.401 44.4803 22.3112C44.4959 22.2214 44.493 22.1293 44.4716 22.0407C44.4502 21.9521 44.4109 21.8688 44.356 21.7959C44.3041 21.722 44.2381 21.6591 44.1618 21.6107C44.0855 21.5624 44.0004 21.5295 43.9114 21.514C43.8224 21.4985 43.7312 21.5007 43.6431 21.5205C43.555 21.5403 43.4716 21.5773 43.3977 21.6293C42.4401 22.0376 41.4305 22.3111 40.3977 22.4418L38.5852 22.7543C38.1685 22.7543 37.7935 22.9001 37.3769 22.9209C36.7258 22.972 36.0717 22.972 35.4206 22.9209C35.442 22.8461 35.442 22.7667 35.4206 22.6918C35.3585 22.6275 35.284 22.5764 35.2017 22.5415C35.1194 22.5066 35.0309 22.4886 34.9415 22.4886C34.8521 22.4886 34.7636 22.5066 34.6812 22.5415C34.5989 22.5764 34.5245 22.6275 34.4623 22.6918C33.4762 23.6709 32.4213 24.5668 31.2977 25.3793C30.6266 25.8431 29.8559 26.1429 29.0477 26.2543C28.4886 26.3439 27.9157 26.241 27.4227 25.9626C27.2272 25.8553 27.0713 25.6881 26.9779 25.4856C26.8845 25.2831 26.8586 25.056 26.904 24.8376C26.9915 24.3626 27.1748 23.9084 27.4456 23.5043C27.9665 22.7765 28.5637 22.1168 29.2373 21.5251C30.2581 20.5064 31.3206 19.4439 32.4019 18.4251C33.0823 17.7958 33.814 17.2244 34.5894 16.7168C34.9922 16.4459 35.4158 16.2098 35.8602 16.0084C36.6803 15.6488 37.5992 15.5825 38.4623 15.8209C39.3165 16.0084 40.129 16.3209 40.9831 16.5709C41.729 16.7584 42.4852 16.8904 43.2519 16.9668C44.0019 17.0084 44.7519 17.0084 45.5019 16.9668C46.1685 16.9459 46.829 16.8209 47.4581 16.5918C48.2851 16.2459 49.0798 15.8276 49.8331 15.3418L53.4352 13.0709C53.6148 12.9849 53.7541 12.8328 53.824 12.6464C53.8939 12.46 53.8889 12.2559 53.8102 12.073Z" fill="#5898A6"/>
<path fill-rule="evenodd" clip-rule="evenodd" d="M42.6665 33.1666C42.5392 32.8023 42.3867 32.4473 42.2102 32.1041C41.6203 31.0941 40.9217 30.1517 40.1269 29.2937L37.8977 26.752C37.7838 26.6239 37.6261 26.5431 37.4556 26.5252C37.2851 26.5074 37.1141 26.5539 36.9761 26.6556C36.8381 26.7573 36.7431 26.9069 36.7098 27.0751C36.6764 27.2432 36.707 27.4178 36.7957 27.5645L38.4415 30.5229C38.9832 31.3895 39.4554 32.2923 39.8582 33.2312C40.1102 33.7562 40.279 34.3187 40.3582 34.8979C40.4242 35.2619 40.4118 35.6357 40.322 35.9946C40.2322 36.3535 40.067 36.6891 39.8373 36.9791C39.5457 37.3124 39.1707 37.5624 38.754 37.7083C38.7239 37.6299 38.6891 37.5533 38.6498 37.4791C38.2105 36.8256 37.723 36.2059 37.1915 35.6249L34.1915 32.2291C34.134 32.1443 34.0604 32.0716 33.9749 32.0153C33.8894 31.9589 33.7936 31.9199 33.693 31.9006C33.4898 31.8615 33.2794 31.9047 33.1082 32.0208C32.9369 32.1368 32.8187 32.3161 32.7796 32.5193C32.7406 32.7225 32.7838 32.9328 32.8998 33.1041L35.2332 37.0833C35.6304 37.6388 35.9984 38.2152 36.3373 38.8124C36.5179 39.1194 36.6568 39.4458 36.754 39.7916C36.8698 40.03 36.9039 40.2999 36.8512 40.5597C36.7985 40.8194 36.6619 41.0547 36.4623 41.2291C36.1641 41.4748 35.8035 41.6328 35.4207 41.6854V41.4979C35.1998 41.0248 34.9273 40.5777 34.6082 40.1645C34.1082 39.5604 33.629 38.977 33.0873 38.4145C32.5457 37.852 32.0477 37.3104 31.4852 36.7916C31.3711 36.652 31.2067 36.5629 31.0274 36.5434C30.8481 36.5239 30.6684 36.5757 30.5269 36.6874C30.386 36.8053 30.2963 36.9733 30.2769 37.156C30.2574 37.3387 30.3097 37.5217 30.4227 37.6666C30.7561 38.1666 31.0477 38.6458 31.3394 39.1666C31.6311 39.6874 32.1519 40.6874 32.5269 41.4791L33.1102 42.8937L32.8186 43.3937C32.678 43.6188 32.4926 43.8126 32.274 43.9631C32.0554 44.1137 31.8082 44.2177 31.5477 44.2687C31.0445 44.4026 30.5093 44.3431 30.0477 44.102C29.9616 44.0485 29.8658 44.0126 29.7657 43.9962C29.6656 43.9798 29.5633 43.9833 29.4646 44.0066C29.3659 44.0298 29.2728 44.0723 29.1905 44.1315C29.1083 44.1908 29.0385 44.2657 28.9852 44.352C28.8762 44.5292 28.8413 44.7422 28.8881 44.945C28.9349 45.1477 29.0596 45.3239 29.2352 45.4354C29.9049 46.0158 30.7659 46.3276 31.6519 46.3104C32.4504 46.3318 33.2382 46.1232 33.9216 45.7095C34.6049 45.2959 35.1549 44.6945 35.5061 43.977C35.5686 43.7715 35.6102 43.5631 35.6311 43.352C36.3473 43.4016 37.0643 43.2652 37.7123 42.9562C38.3255 42.613 38.817 42.088 39.1193 41.4537C39.4215 40.8194 39.5195 40.1069 39.3998 39.4145C40.1701 39.2701 40.8887 38.9252 41.4832 38.4145C41.9572 37.9821 42.3396 37.4589 42.6077 36.876C42.8757 36.293 43.024 35.6621 43.0436 35.0208C42.9952 34.3897 42.8692 33.7669 42.6686 33.1666M53.9769 30.6062C53.9526 30.5075 53.9089 30.4147 53.8486 30.333C53.7882 30.2512 53.7123 30.1822 53.6251 30.13C53.538 30.0777 53.4414 30.0432 53.3409 30.0284C53.2404 30.0135 53.1379 30.0188 53.0394 30.0437C51.7686 30.1895 50.5394 30.2312 49.3102 30.4395C48.4749 30.5762 47.6531 30.7853 46.854 31.0645C45.9358 31.4121 45.0617 31.8666 44.2498 32.4187C42.5436 33.127 43.5623 34.502 45.1665 34.0437L47.104 33.6479L48.5623 33.2937L49.9998 32.8354C51.1457 32.4395 52.2707 32.002 53.4144 31.5437C53.5131 31.5193 53.6059 31.4757 53.6876 31.4153C53.7694 31.355 53.8384 31.279 53.8906 31.1919C53.9429 31.1048 53.9774 31.0082 53.9922 30.9077C54.0071 30.8071 54.0018 30.7047 53.9769 30.6062Z" fill="#5898A6"/>
</g>
<defs>
<clipPath id="clip0_1_349">
<rect width="50" height="50" fill="white" transform="translate(3.99976 4)"/>
</clipPath>
</defs>
</svg>
