<svg width="58" height="59" viewBox="0 0 58 59" fill="none" xmlns="http://www.w3.org/2000/svg">
<path d="M12.1133 27.9695C12.1122 27.4597 12.2726 26.9626 12.5717 26.5497C12.8707 26.1367 13.2929 25.8291 13.7776 25.6711L20.0079 23.6356C21.3857 23.1675 22.638 22.39 23.6687 21.3628C24.6993 20.3357 25.4809 19.0861 25.9536 17.71L27.9025 11.536C28.0566 11.0478 28.3621 10.6213 28.7747 10.3182C29.1873 10.0151 29.6857 9.85118 30.1976 9.8501C30.7096 9.84903 31.2087 10.0109 31.6226 10.3122C32.0365 10.6136 32.3437 11.0388 32.4998 11.5263L34.5067 17.792C34.9683 19.1664 35.7414 20.4155 36.7657 21.4418C37.79 22.468 39.0377 23.2436 40.4113 23.708L46.6078 25.6639C47.0961 25.8179 47.5226 26.1233 47.8258 26.5359C48.1289 26.9485 48.2928 27.4468 48.2939 27.9587C48.295 28.4706 48.1331 28.9696 47.8317 29.3834C47.5303 29.7973 47.1051 30.1045 46.6175 30.2606L40.4137 32.2455C39.0394 32.7097 37.791 33.4856 36.7663 34.5122C35.7416 35.5389 34.9682 36.7887 34.5067 38.1638L32.5288 44.3499C32.3738 44.8336 32.07 45.256 31.6607 45.5569C31.2514 45.8578 30.7576 46.0218 30.2496 46.0256C29.7416 46.0293 29.2454 45.8726 28.8317 45.5778C28.4181 45.2829 28.1081 44.865 27.9459 44.3837L25.8571 38.1928V38.1879C25.3858 36.8113 24.6069 35.5603 23.5796 34.5297C22.5523 33.4992 21.3036 32.7164 19.9283 32.2406L13.7849 30.2606C13.2999 30.1042 12.877 29.7983 12.5767 29.3867C12.2764 28.9751 12.1142 28.4789 12.1133 27.9695ZM20.6929 29.9543C22.4211 30.5464 23.9907 31.5263 25.2814 32.8189C26.572 34.1115 27.5495 35.6825 28.1389 37.4114L30.2301 43.6143L32.2152 37.4114C32.795 35.6769 33.7695 34.1006 35.062 32.8067C36.3544 31.5127 37.9296 30.5363 39.6636 29.9543L45.8818 27.9622L39.6636 25.9991C37.9294 25.4169 36.354 24.4401 35.0615 23.1457C33.769 21.8513 32.7947 20.2745 32.2152 18.5396L30.2036 12.2619L28.2426 18.4649C27.6508 20.1963 26.6696 21.7689 25.3746 23.0617C24.0795 24.3545 22.5051 25.333 20.7725 25.9219L14.5254 27.9646L20.6929 29.9543ZM15.729 36.3791C15.985 36.3788 16.2345 36.46 16.4414 36.6108C16.6482 36.7617 16.8017 36.9745 16.8795 37.2184L17.497 39.1406C17.6163 39.4945 17.8154 39.8162 18.0789 40.0809C18.3424 40.3457 18.6632 40.5462 19.0166 40.6672L20.9197 41.2653C21.1646 41.342 21.3787 41.4948 21.5308 41.7016C21.6829 41.9083 21.7651 42.1582 21.7653 42.4148C21.7656 42.6715 21.684 42.9215 21.5323 43.1285C21.3806 43.3356 21.1669 43.4889 20.9221 43.5661L19.0166 44.1738C18.6623 44.2932 18.3406 44.4932 18.0769 44.7581C17.8132 45.0231 17.6146 45.3457 17.497 45.7005L16.8892 47.5985C16.8119 47.8404 16.6602 48.0518 16.4557 48.2025C16.2513 48.3531 16.0044 48.4354 15.7504 48.4376C15.4964 48.4397 15.2482 48.3616 15.0413 48.2144C14.8343 48.0672 14.679 47.8584 14.5977 47.6178L13.9561 45.7125C13.834 45.3562 13.6325 45.0322 13.3667 44.7652C13.1009 44.4982 12.7779 44.2952 12.4221 44.1714L10.5383 43.5637C10.2968 43.4849 10.0864 43.3319 9.93704 43.1265C9.78767 42.9211 9.70696 42.6738 9.70642 42.4198C9.70589 42.1659 9.78555 41.9183 9.93406 41.7122C10.0826 41.5062 10.2923 41.3523 10.5335 41.2725L12.4486 40.6455C12.804 40.5246 13.1271 40.3239 13.393 40.0589C13.6589 39.7938 13.8606 39.4715 13.9827 39.1165L14.5808 37.2208C14.6583 36.9765 14.8115 36.7632 15.0184 36.6118C15.2253 36.4605 15.4726 36.379 15.729 36.3791Z" fill="#5F56A7"/>
</svg>
